<mxfile host="app.diagrams.net" modified="2020-12-02T22:04:09.690Z" agent="5.0 (Windows NT 10.0; Win64; x64) AppleWebKit/537.36 (KHTML, like Gecko) Chrome/87.0.4280.66 Safari/537.36" etag="5SQciXX-k-3c9SQ6FHFF" version="13.8.7" type="github">
  <diagram id="UejqZeAN-Qnx96pddLIH" name="Page-1">
    <mxGraphModel dx="868" dy="450" grid="1" gridSize="10" guides="1" tooltips="1" connect="1" arrows="1" fold="1" page="1" pageScale="1" pageWidth="827" pageHeight="1169" math="0" shadow="0">
      <root>
        <mxCell id="0" />
        <mxCell id="1" parent="0" />
        <mxCell id="DPdH1W380ujIGKMa01r5-1" value="ALUMNO" style="rounded=1;whiteSpace=wrap;html=1;fillColor=#6a00ff;strokeColor=#3700CC;fontColor=#ffffff;" vertex="1" parent="1">
          <mxGeometry x="167.14" y="100" width="100" height="40" as="geometry" />
        </mxCell>
        <mxCell id="DPdH1W380ujIGKMa01r5-2" value="ASIGNATURA" style="rounded=1;whiteSpace=wrap;html=1;fillColor=#6a00ff;strokeColor=#3700CC;fontColor=#ffffff;" vertex="1" parent="1">
          <mxGeometry x="580" y="95" width="100" height="40" as="geometry" />
        </mxCell>
        <mxCell id="DPdH1W380ujIGKMa01r5-3" value="PROFESOR" style="rounded=1;whiteSpace=wrap;html=1;fillColor=#6a00ff;strokeColor=#3700CC;fontColor=#ffffff;" vertex="1" parent="1">
          <mxGeometry x="409" y="370" width="100" height="40" as="geometry" />
        </mxCell>
        <mxCell id="DPdH1W380ujIGKMa01r5-4" value="&lt;u&gt;Id_Proyecto&lt;/u&gt;" style="ellipse;whiteSpace=wrap;html=1;fillColor=#1ba1e2;strokeColor=#006EAF;fontColor=#ffffff;" vertex="1" parent="1">
          <mxGeometry x="303" y="370" width="70" height="40" as="geometry" />
        </mxCell>
        <mxCell id="DPdH1W380ujIGKMa01r5-5" value="&lt;u&gt;pk_Empleado&lt;/u&gt;" style="ellipse;whiteSpace=wrap;html=1;fillColor=#1ba1e2;strokeColor=#006EAF;fontColor=#ffffff;" vertex="1" parent="1">
          <mxGeometry x="419" y="440" width="80" height="40" as="geometry" />
        </mxCell>
        <mxCell id="DPdH1W380ujIGKMa01r5-6" value="&lt;u&gt;pk_Dpto&lt;/u&gt;" style="ellipse;whiteSpace=wrap;html=1;fillColor=#1ba1e2;strokeColor=#006EAF;fontColor=#ffffff;" vertex="1" parent="1">
          <mxGeometry x="539" y="370" width="70" height="40" as="geometry" />
        </mxCell>
        <mxCell id="DPdH1W380ujIGKMa01r5-7" value="&lt;u&gt;Id_Alumno&lt;/u&gt;" style="ellipse;whiteSpace=wrap;html=1;fillColor=#1ba1e2;strokeColor=#006EAF;fontColor=#ffffff;" vertex="1" parent="1">
          <mxGeometry x="182.14" y="30" width="70" height="40" as="geometry" />
        </mxCell>
        <mxCell id="DPdH1W380ujIGKMa01r5-8" value="Dni_Empl" style="ellipse;whiteSpace=wrap;html=1;fillColor=#1ba1e2;strokeColor=#006EAF;fontColor=#ffffff;" vertex="1" parent="1">
          <mxGeometry x="20" y="130" width="70" height="40" as="geometry" />
        </mxCell>
        <mxCell id="DPdH1W380ujIGKMa01r5-9" value="Nº SS" style="ellipse;whiteSpace=wrap;html=1;fillColor=#1ba1e2;strokeColor=#006EAF;fontColor=#ffffff;" vertex="1" parent="1">
          <mxGeometry x="88.99999999999999" y="169" width="60" height="40" as="geometry" />
        </mxCell>
        <mxCell id="DPdH1W380ujIGKMa01r5-10" value="&lt;u&gt;pk_Asignatura&lt;/u&gt;" style="ellipse;whiteSpace=wrap;html=1;fillColor=#1ba1e2;strokeColor=#006EAF;fontColor=#ffffff;" vertex="1" parent="1">
          <mxGeometry x="300" y="30" width="76" height="40" as="geometry" />
        </mxCell>
        <mxCell id="DPdH1W380ujIGKMa01r5-11" value="Cargo" style="ellipse;whiteSpace=wrap;html=1;fillColor=#1ba1e2;strokeColor=#006EAF;fontColor=#ffffff;" vertex="1" parent="1">
          <mxGeometry x="80" y="30" width="60" height="40" as="geometry" />
        </mxCell>
        <mxCell id="DPdH1W380ujIGKMa01r5-12" value="Apellido" style="ellipse;whiteSpace=wrap;html=1;fillColor=#1ba1e2;strokeColor=#006EAF;fontColor=#ffffff;" vertex="1" parent="1">
          <mxGeometry x="20" y="70" width="60" height="40" as="geometry" />
        </mxCell>
        <mxCell id="DPdH1W380ujIGKMa01r5-13" value="" style="endArrow=none;html=1;strokeColor=#FFFEF7;" edge="1" parent="1">
          <mxGeometry width="50" height="50" relative="1" as="geometry">
            <mxPoint x="320" y="61" as="sourcePoint" />
            <mxPoint x="360" y="61" as="targetPoint" />
          </mxGeometry>
        </mxCell>
        <mxCell id="DPdH1W380ujIGKMa01r5-14" value="&lt;u&gt;Id_Dpto&lt;/u&gt;" style="ellipse;whiteSpace=wrap;html=1;fillColor=#1ba1e2;strokeColor=#006EAF;fontColor=#ffffff;" vertex="1" parent="1">
          <mxGeometry x="538" y="28" width="70" height="40" as="geometry" />
        </mxCell>
        <mxCell id="DPdH1W380ujIGKMa01r5-15" value="Localizzación" style="ellipse;whiteSpace=wrap;html=1;fillColor=#1ba1e2;strokeColor=#006EAF;fontColor=#ffffff;" vertex="1" parent="1">
          <mxGeometry x="640" y="30" width="80" height="40" as="geometry" />
        </mxCell>
        <mxCell id="DPdH1W380ujIGKMa01r5-16" value="Función" style="ellipse;whiteSpace=wrap;html=1;fillColor=#1ba1e2;strokeColor=#006EAF;fontColor=#ffffff;" vertex="1" parent="1">
          <mxGeometry x="730" y="90" width="60" height="40" as="geometry" />
        </mxCell>
        <mxCell id="DPdH1W380ujIGKMa01r5-17" value="" style="endArrow=none;html=1;strokeColor=#FFFEF7;" edge="1" parent="1">
          <mxGeometry width="50" height="50" relative="1" as="geometry">
            <mxPoint x="553" y="400" as="sourcePoint" />
            <mxPoint x="593" y="400" as="targetPoint" />
          </mxGeometry>
        </mxCell>
        <mxCell id="DPdH1W380ujIGKMa01r5-18" value="Estudia" style="rhombus;whiteSpace=wrap;html=1;fillColor=#60a917;strokeColor=#2D7600;fontColor=#ffffff;" vertex="1" parent="1">
          <mxGeometry x="423" y="90" width="60" height="59" as="geometry" />
        </mxCell>
        <mxCell id="DPdH1W380ujIGKMa01r5-19" value="Enseña" style="rhombus;whiteSpace=wrap;html=1;fillColor=#60a917;strokeColor=#2D7600;fontColor=#ffffff;" vertex="1" parent="1">
          <mxGeometry x="426" y="230" width="60" height="49" as="geometry" />
        </mxCell>
        <mxCell id="DPdH1W380ujIGKMa01r5-20" value="" style="endArrow=classic;startArrow=classic;html=1;strokeColor=#0000CC;entryX=0.5;entryY=1;entryDx=0;entryDy=0;strokeWidth=2;" edge="1" parent="1" target="DPdH1W380ujIGKMa01r5-2">
          <mxGeometry width="50" height="50" relative="1" as="geometry">
            <mxPoint x="490" y="253" as="sourcePoint" />
            <mxPoint x="549" y="203" as="targetPoint" />
          </mxGeometry>
        </mxCell>
        <mxCell id="DPdH1W380ujIGKMa01r5-21" value="" style="endArrow=classic;startArrow=classic;html=1;strokeColor=#0000CC;" edge="1" parent="1">
          <mxGeometry width="50" height="50" relative="1" as="geometry">
            <mxPoint x="456" y="370" as="sourcePoint" />
            <mxPoint x="455.5" y="279" as="targetPoint" />
          </mxGeometry>
        </mxCell>
        <mxCell id="DPdH1W380ujIGKMa01r5-22" value="" style="endArrow=classic;startArrow=classic;html=1;strokeColor=#0000CC;entryX=0.5;entryY=1;entryDx=0;entryDy=0;exitX=0;exitY=0.5;exitDx=0;exitDy=0;strokeWidth=2;" edge="1" parent="1" source="DPdH1W380ujIGKMa01r5-19">
          <mxGeometry width="50" height="50" relative="1" as="geometry">
            <mxPoint x="90" y="258" as="sourcePoint" />
            <mxPoint x="221" y="140" as="targetPoint" />
          </mxGeometry>
        </mxCell>
        <mxCell id="DPdH1W380ujIGKMa01r5-23" value="" style="endArrow=classic;startArrow=classic;html=1;strokeColor=#0000CC;entryX=0.5;entryY=1;entryDx=0;entryDy=0;exitX=0;exitY=0.5;exitDx=0;exitDy=0;strokeWidth=2;" edge="1" parent="1" source="DPdH1W380ujIGKMa01r5-18">
          <mxGeometry width="50" height="50" relative="1" as="geometry">
            <mxPoint x="486.14" y="234.5" as="sourcePoint" />
            <mxPoint x="267.1399999999999" y="120" as="targetPoint" />
          </mxGeometry>
        </mxCell>
        <mxCell id="DPdH1W380ujIGKMa01r5-24" value="" style="endArrow=classic;startArrow=classic;html=1;strokeColor=#0000CC;strokeWidth=2;" edge="1" parent="1">
          <mxGeometry width="50" height="50" relative="1" as="geometry">
            <mxPoint x="580" y="120" as="sourcePoint" />
            <mxPoint x="483" y="120" as="targetPoint" />
          </mxGeometry>
        </mxCell>
        <mxCell id="DPdH1W380ujIGKMa01r5-25" value="" style="endArrow=none;html=1;" edge="1" parent="1">
          <mxGeometry width="50" height="50" relative="1" as="geometry">
            <mxPoint x="640" y="95" as="sourcePoint" />
            <mxPoint x="670" y="70" as="targetPoint" />
          </mxGeometry>
        </mxCell>
        <mxCell id="DPdH1W380ujIGKMa01r5-26" value="" style="endArrow=none;html=1;strokeColor=#000000;strokeWidth=1;entryX=0;entryY=1;entryDx=0;entryDy=0;" edge="1" parent="1" target="DPdH1W380ujIGKMa01r5-10">
          <mxGeometry width="50" height="50" relative="1" as="geometry">
            <mxPoint x="240" y="100" as="sourcePoint" />
            <mxPoint x="290" y="50" as="targetPoint" />
          </mxGeometry>
        </mxCell>
        <mxCell id="DPdH1W380ujIGKMa01r5-27" value="" style="endArrow=none;html=1;strokeColor=#000000;strokeWidth=1;entryX=0.017;entryY=0.675;entryDx=0;entryDy=0;entryPerimeter=0;" edge="1" parent="1" target="DPdH1W380ujIGKMa01r5-16">
          <mxGeometry width="50" height="50" relative="1" as="geometry">
            <mxPoint x="680" y="115.86000000000001" as="sourcePoint" />
            <mxPoint x="751.1299423149112" y="80.00213562373095" as="targetPoint" />
          </mxGeometry>
        </mxCell>
        <mxCell id="DPdH1W380ujIGKMa01r5-28" value="" style="endArrow=none;html=1;strokeColor=#000000;strokeWidth=1;" edge="1" parent="1" source="DPdH1W380ujIGKMa01r5-1">
          <mxGeometry width="50" height="50" relative="1" as="geometry">
            <mxPoint x="150" y="120" as="sourcePoint" />
            <mxPoint x="120" y="70" as="targetPoint" />
          </mxGeometry>
        </mxCell>
        <mxCell id="DPdH1W380ujIGKMa01r5-29" value="" style="endArrow=none;html=1;strokeColor=#000000;strokeWidth=1;exitX=0;exitY=0.25;exitDx=0;exitDy=0;" edge="1" parent="1" source="DPdH1W380ujIGKMa01r5-1">
          <mxGeometry width="50" height="50" relative="1" as="geometry">
            <mxPoint x="138.28399999999988" y="125" as="sourcePoint" />
            <mxPoint x="80" y="95" as="targetPoint" />
          </mxGeometry>
        </mxCell>
        <mxCell id="DPdH1W380ujIGKMa01r5-30" value="" style="endArrow=none;html=1;strokeColor=#000000;strokeWidth=1;exitX=0.42;exitY=0.05;exitDx=0;exitDy=0;exitPerimeter=0;" edge="1" parent="1">
          <mxGeometry width="50" height="50" relative="1" as="geometry">
            <mxPoint x="622" y="95" as="sourcePoint" />
            <mxPoint x="570" y="68" as="targetPoint" />
          </mxGeometry>
        </mxCell>
        <mxCell id="DPdH1W380ujIGKMa01r5-31" value="" style="endArrow=none;html=1;strokeColor=#000000;strokeWidth=1;" edge="1" parent="1">
          <mxGeometry width="50" height="50" relative="1" as="geometry">
            <mxPoint x="509" y="389.43000000000006" as="sourcePoint" />
            <mxPoint x="540" y="391" as="targetPoint" />
          </mxGeometry>
        </mxCell>
        <mxCell id="DPdH1W380ujIGKMa01r5-32" value="" style="endArrow=none;html=1;strokeColor=#000000;strokeWidth=1;" edge="1" parent="1">
          <mxGeometry width="50" height="50" relative="1" as="geometry">
            <mxPoint x="373" y="389.43000000000006" as="sourcePoint" />
            <mxPoint x="410" y="391" as="targetPoint" />
          </mxGeometry>
        </mxCell>
        <mxCell id="DPdH1W380ujIGKMa01r5-33" value="" style="endArrow=none;html=1;strokeColor=#000000;strokeWidth=1;" edge="1" parent="1" source="DPdH1W380ujIGKMa01r5-5">
          <mxGeometry width="50" height="50" relative="1" as="geometry">
            <mxPoint x="409" y="460" as="sourcePoint" />
            <mxPoint x="459" y="410" as="targetPoint" />
          </mxGeometry>
        </mxCell>
        <mxCell id="DPdH1W380ujIGKMa01r5-34" value="" style="endArrow=none;html=1;strokeColor=#000000;strokeWidth=1;exitX=0;exitY=0.75;exitDx=0;exitDy=0;" edge="1" parent="1" source="DPdH1W380ujIGKMa01r5-1">
          <mxGeometry width="50" height="50" relative="1" as="geometry">
            <mxPoint x="177.13999999999987" y="164" as="sourcePoint" />
            <mxPoint x="90" y="149" as="targetPoint" />
          </mxGeometry>
        </mxCell>
        <mxCell id="DPdH1W380ujIGKMa01r5-35" value="" style="endArrow=none;html=1;strokeColor=#000000;strokeWidth=1;exitX=0.099;exitY=1.075;exitDx=0;exitDy=0;exitPerimeter=0;" edge="1" parent="1">
          <mxGeometry width="50" height="50" relative="1" as="geometry">
            <mxPoint x="178.03999999999996" y="141" as="sourcePoint" />
            <mxPoint x="121" y="168" as="targetPoint" />
          </mxGeometry>
        </mxCell>
        <mxCell id="DPdH1W380ujIGKMa01r5-36" value="" style="endArrow=none;html=1;strokeColor=#000000;strokeWidth=1;entryX=0.5;entryY=1;entryDx=0;entryDy=0;" edge="1" parent="1" target="DPdH1W380ujIGKMa01r5-7">
          <mxGeometry width="50" height="50" relative="1" as="geometry">
            <mxPoint x="217.13999999999987" y="100" as="sourcePoint" />
            <mxPoint x="267.14" y="50" as="targetPoint" />
          </mxGeometry>
        </mxCell>
        <mxCell id="DPdH1W380ujIGKMa01r5-37" value="" style="endArrow=none;html=1;strokeColor=#FFFEF7;" edge="1" parent="1">
          <mxGeometry width="50" height="50" relative="1" as="geometry">
            <mxPoint x="439" y="470" as="sourcePoint" />
            <mxPoint x="479" y="470" as="targetPoint" />
          </mxGeometry>
        </mxCell>
      </root>
    </mxGraphModel>
  </diagram>
</mxfile>
